<svg width="16" height="16" viewBox="0 0 16 16" fill="none" xmlns="http://www.w3.org/2000/svg">
<circle cx="8" cy="8" r="8" fill="#1565C0"/>
<path fill-rule="evenodd" clip-rule="evenodd" d="M12.1478 5.51532C12.0695 5.42136 11.9643 5.3031 11.857 5.20246C11.6994 5.05592 11.5366 5.0512 11.395 5.04709C11.339 5.04547 11.2863 5.04395 11.2386 5.03382C11.07 4.99804 11.07 4.61987 11.07 4.61987C11.07 4.61987 11.1926 4.53299 11.3357 4.53299C11.4421 4.53299 11.4496 4.4878 11.457 4.44361C11.4595 4.42836 11.462 4.41323 11.4686 4.40012C11.4941 4.35412 11.4328 4.24169 11.4328 4.24169C11.4328 4.24169 11.4686 4.1446 11.443 4.0986C11.4175 4.0475 11.4175 3.9044 11.4532 3.8533C11.489 3.8073 11.4635 3.74598 11.4635 3.74598C11.4635 3.74598 11.3306 3.69487 11.1977 3.4649C11.0291 3.1736 10.7276 3.09184 10.4363 3.14805C10.2272 3.19081 10.1154 3.31305 10.0021 3.43678C9.99354 3.44616 9.98495 3.45554 9.97632 3.4649C9.85366 3.59777 9.87922 3.8533 9.87922 3.8533C9.87922 3.8533 10.1245 4.40012 9.90477 4.17015C9.68502 3.94018 9.35795 3.87885 9.2864 3.86863C9.2257 3.85996 9.09143 3.73357 8.91168 3.56438C8.87956 3.53415 8.84599 3.50255 8.81113 3.47001C8.6199 3.28728 8.42867 3.20703 8.27858 3.14404C8.24817 3.13128 8.21945 3.11922 8.19276 3.10717C8.03434 3.03562 7.85547 2.7801 7.85547 2.74432C7.85547 2.70855 7.8197 2.32016 7.74815 2.17195C7.6766 2.02886 7.64083 1.68646 7.6255 1.46671C7.77881 1.6098 7.98323 1.69668 8.20809 1.69668C8.67826 1.69668 9.05643 1.3185 9.05643 0.848338C9.05643 0.378175 8.67826 0 8.20809 0C7.91169 0 7.65105 0.153314 7.49774 0.383286C7.43122 0.374417 7.34162 0.480984 7.27567 0.559416C7.26561 0.571372 7.25611 0.582675 7.24732 0.592815C7.17578 0.679693 7.186 0.909664 7.2371 1.07831C7.2831 1.24696 7.26265 1.64557 7.24732 1.92665C7.23752 2.19129 7.22302 2.22565 7.14974 2.39928C7.1466 2.40671 7.14336 2.4144 7.14 2.42236C7.05313 2.61656 7.12978 2.88231 7.12978 2.88231C7.12978 2.88231 7.26265 3.05095 7.38531 3.20938C7.43785 3.27725 7.52511 3.40516 7.62014 3.54447C7.74693 3.73033 7.88757 3.9365 7.97812 4.0475C8.08463 4.17805 8.33896 4.36404 8.52683 4.50143C8.61841 4.5684 8.69419 4.62382 8.72936 4.65564C8.78721 4.70798 8.78566 4.74695 8.78395 4.79017C8.78249 4.82714 8.7809 4.8672 8.81624 4.92139C8.84176 4.96514 8.88419 5.018 8.93263 5.07834C9.01997 5.18714 9.12684 5.32027 9.1893 5.46821C9.24759 5.60626 9.26721 5.70563 9.28573 5.7995C9.29807 5.862 9.30993 5.92207 9.3324 5.98948C9.36624 6.08255 9.36273 6.19118 9.3588 6.3128C9.35561 6.41156 9.35214 6.51889 9.36817 6.6334C9.39418 6.81916 9.38237 6.98602 9.37399 7.10452C9.37084 7.14901 9.36817 7.18669 9.36817 7.21599C9.36817 7.32331 9.4295 7.62994 9.4295 7.62994C9.4295 7.62994 9.39372 7.72704 9.32218 7.76281C9.25063 7.79858 9.03088 7.94679 8.8469 8.07966C8.66293 8.21253 8.60671 8.28408 8.45851 8.62648C8.36464 8.84773 8.27957 9.28009 8.21484 9.60909C8.18089 9.78164 8.15253 9.92576 8.13144 9.99609C8.07011 10.2005 8.02412 10.2976 7.93724 10.3589C7.85036 10.4203 7.69705 10.2721 7.69705 10.2721L7.63572 10.4049C7.63572 10.4049 7.70727 10.4509 7.76859 10.502C7.79649 10.5237 7.83002 10.5999 7.8578 10.6748L12.1478 5.51532ZM7.59575 10.99C7.52711 10.9716 7.42742 10.9406 7.30865 10.8904C7.16601 10.8302 7.04107 10.766 6.91797 10.7028C6.8426 10.6641 6.76791 10.6258 6.69028 10.5889C6.53794 10.5165 6.45939 10.3902 6.40387 10.301C6.3849 10.2705 6.36861 10.2443 6.35299 10.2261C6.31508 10.1818 6.31037 10.0849 6.30626 10.0004C6.30373 9.9482 6.30142 9.90076 6.29167 9.87344C6.26611 9.80189 6.14857 9.55659 6.03614 9.45949C5.93645 9.3693 5.73975 9.44666 5.56483 9.51546C5.55144 9.52073 5.53818 9.52595 5.52509 9.53104C5.40981 9.57587 5.33867 9.6508 5.26642 9.72691C5.22336 9.77226 5.17991 9.81804 5.12648 9.85811C4.98338 9.96543 4.83518 10.0625 4.63076 10.1392C4.47378 10.1941 4.28666 10.3847 4.15273 10.5211C4.11225 10.5623 4.07663 10.5986 4.04817 10.6247C3.9697 10.6933 3.96235 10.7683 3.95386 10.8548C3.94907 10.9036 3.94393 10.956 3.92551 11.0131C3.87952 11.1715 3.89996 11.2175 3.95107 11.289C4.00217 11.3606 4.13504 11.335 4.26792 11.2993C4.40079 11.2635 4.59499 11.1766 4.72786 11.1051C4.86073 11.0335 5.00383 10.9977 5.17758 10.9824C5.34623 10.9722 5.40755 10.9926 5.4791 11.0284C5.55065 11.0642 5.7244 11.0642 5.80617 11.0386C5.85153 11.0253 5.88854 11.0691 5.92955 11.1176C5.96708 11.162 6.00797 11.2104 6.06169 11.2226C6.16901 11.2482 6.41432 11.2942 6.41432 11.2942L6.94581 11.7285C6.94581 11.7285 6.68006 11.7183 6.55741 11.7183C6.48257 11.7183 6.3183 11.7678 6.15168 11.818C6.04524 11.85 5.93783 11.8824 5.85216 11.9023C5.67474 11.9436 5.35073 11.9748 5.13029 11.9961C5.0777 12.0012 5.03101 12.0057 4.9936 12.0096C4.79941 12.0352 4.60521 11.9483 4.48256 11.8512C4.42975 11.8094 4.39305 11.7742 4.35859 11.7412C4.313 11.6975 4.27133 11.6576 4.20148 11.611C4.10394 11.5419 3.98378 11.5278 3.87183 11.5146C3.84301 11.5112 3.81474 11.5079 3.78753 11.5037C3.67718 11.4825 3.65848 11.5811 3.63481 11.7059C3.62998 11.7314 3.62495 11.7579 3.61889 11.7848C3.60072 11.8652 3.50741 12.0327 3.40592 12.2148C3.30757 12.3913 3.20154 12.5816 3.14872 12.72C3.0414 13.001 3.01585 13.3843 3.00052 13.691C2.9903 13.9925 3.13339 14.018 3.22027 13.9925C3.30715 13.9669 3.44002 13.8954 3.48601 13.7983C3.50717 13.7536 3.55753 13.6787 3.6152 13.5928C3.68289 13.4921 3.76065 13.3764 3.81308 13.277C3.88336 13.1439 3.93489 13.1285 3.98125 13.1147C3.99895 13.1094 4.01589 13.1043 4.03283 13.093C4.09416 13.0573 4.11971 12.9959 4.11971 12.9959L4.457 12.9704L4.51833 12.7762H5.12648C5.12648 12.7762 5.21335 12.7404 5.27468 12.7149C5.33601 12.6893 5.60175 12.6689 5.73462 12.6791C5.75114 12.6809 5.77392 12.6834 5.8011 12.6864C5.89218 12.6964 6.03266 12.7118 6.15236 12.7259L7.59575 10.99Z" fill="white"/>
</svg>
