<svg width="202" height="80" fill="none" xmlns="http://www.w3.org/2000/svg"><path d="M114.627 36.918h11.6v-5.715h-26.006l-4.12 11.983L91.805 31.1H77.09v20.779l-4.502-6.442c.727-.45 2.009-1.489 2.528-2.043 1.074-1.212 1.628-2.874 1.628-4.537 0-5.541-3.913-7.757-8.588-7.654h-11.74v9.109c-.727-5.992-5.644-9.074-10.977-9.074h-1.662L65.142 5.853l-.554-.45L45.68 27.879c-.346-.45-1.108-1.386-1.904-2.147-1.074-1.005-2.217-.658-3.048-.832-.83-.173-.83-2.043-.83-2.043s.588-.415 1.315-.415.554-.416.658-.658c.104-.243-.173-.762-.173-.762s.173-.485.07-.728c-.105-.242-.105-.97.069-1.212.173-.242.069-.554.069-.554s-.658-.277-1.316-1.385c-.831-1.455-2.32-1.87-3.775-1.559-1.108.243-1.662.9-2.285 1.559-.589.658-.485 1.905-.485 1.905s1.212 2.7.104 1.558c-1.074-1.143-2.701-1.455-3.047-1.49-.347-.068-1.212-.9-2.32-1.973-1.143-1.074-2.286-1.455-3.048-1.801-.762-.346-1.662-1.628-1.662-1.8 0-.174-.173-2.113-.554-2.806-.347-.693-.52-2.39-.589-3.463.762.692 1.766 1.143 2.874 1.143 2.32 0 4.19-1.87 4.19-4.19C29.924 1.87 28.054 0 25.734 0c-1.454 0-2.77.762-3.498 1.905-.38-.07-.9.658-1.212 1.039-.346.415-.311 1.558-.069 2.39.243.83.104 2.805.07 4.19-.07 1.385-.104 1.489-.555 2.459-.415.97-.069 2.285-.069 2.285s.658.832 1.247 1.628c.588.762 2.147 3.186 2.943 4.121.762.97 3.186 2.529 3.706 2.979.554.485.069.727.415 1.316.346.588 1.385 1.558 1.87 2.701.485 1.143.416 1.732.727 2.563.312.83 0 1.904.173 3.186.174 1.247 0 2.32 0 2.874 0 .554.312 2.044.312 2.044s-.173.484-.554.658c-.346.173-1.454.9-2.32 1.558-.9.658-1.212 1.004-1.905 2.701-.727 1.697-1.316 5.75-1.627 6.754-.312 1.039-.554 1.489-.97 1.8-.415.312-1.212-.415-1.212-.415l-.312.658s.347.242.658.485c.243.173.52 1.073.658 1.489l-.588.693-.45.346s-.797-.104-1.905-.589c-1.143-.485-2.043-1.004-3.047-1.489-1.005-.485-1.386-1.455-1.663-1.8-.311-.347-.173-1.386-.311-1.733-.104-.346-.728-1.558-1.247-2.043-.554-.485-1.628 0-2.528.347-.9.346-1.247 1.073-1.974 1.627-.727.554-1.454 1.005-2.458 1.386-1.005.346-2.286 1.87-2.875 2.39-.588.553-.346 1.142-.588 1.904-.243.762-.104 1.004.104 1.385.242.346.9.243 1.558.07.658-.174 1.627-.59 2.285-.97a5.132 5.132 0 012.217-.589c.83-.07 1.142.07 1.489.242.346.174 1.212.174 1.627.07.416-.104.727.762 1.247.9.554.104 1.731.346 1.731.346l2.632 2.148s-1.316-.07-1.905-.07c-.588 0-2.389.658-3.462.9-1.074.243-3.29.416-4.26.555-.97.104-1.904-.312-2.528-.762-.588-.485-.761-.762-1.385-1.212-.589-.416-1.385-.416-2.043-.554-.658-.104-.658.589-.831 1.385-.173.762-1.8 3.22-2.32 4.606-.554 1.385-.658 3.29-.727 4.78-.07 1.489.658 1.627 1.073 1.489.416-.104 1.074-.485 1.316-.97s1.143-1.663 1.628-2.563c.484-.9.761-.727 1.073-.9a.959.959 0 00.416-.485l1.662-.139.311-.97h3.013s.416-.173.727-.311c.312-.104 1.628-.242 2.286-.173.45.034 1.87.207 2.666.311L2.221 79.55l.554.45L35.36 41.212v11.394h9.661c4.364 0 10.562-2.355 11.428-9.143v9.178h7.203v-6.13h1.454l4.017 6.13h15.168V32.416l8.138 20.26h7.168l7.93-19.776v19.74h18.665v-5.818h-11.601v-2.39h11.67v-5.229h-11.67v-2.285h.035zm-69.5 9.489h-2.494v-9.004h2.493c1.005 0 4.156.9 4.156 4.294 0 3.394-3.151 4.71-4.156 4.71zm22.231-5.091h-3.67v-4.19h3.67c1.074 0 2.251.865 2.251 2.181 0 1.005-1.177 2.009-2.25 2.009z" fill="#263238"/><path d="M144.874 31.7V38h-7.893v-6.3h.891v5.517h2.619V31.7h.882v5.517h2.619V31.7h.882zm4.156 3.528h-1.314V38h-.882v-6.3h.882v2.736h1.332l1.98-2.736h.963l-2.25 3.051L152.099 38h-1.026l-2.043-2.772zm6.808 2.844a3.553 3.553 0 01-1.719-.414 3.159 3.159 0 01-1.206-1.161 3.2 3.2 0 01-.432-1.647 3.2 3.2 0 01.432-1.647 3.093 3.093 0 011.206-1.152 3.492 3.492 0 011.719-.423c.63 0 1.2.141 1.71.423.51.276.909.66 1.197 1.152.288.486.432 1.035.432 1.647 0 .612-.144 1.164-.432 1.656-.288.486-.687.87-1.197 1.152-.51.276-1.08.414-1.71.414zm0-.801a2.45 2.45 0 001.242-.315c.372-.21.663-.498.873-.864.216-.372.324-.786.324-1.242a2.38 2.38 0 00-.324-1.233 2.26 2.26 0 00-.873-.873 2.45 2.45 0 00-1.242-.315 2.55 2.55 0 00-1.26.315c-.372.21-.666.501-.882.873-.21.366-.315.777-.315 1.233 0 .456.105.87.315 1.242.216.366.51.654.882.864.378.21.798.315 1.26.315zm9.767-5.571V38h-.882v-5.517h-2.79l-.063 1.845c-.03.87-.102 1.575-.216 2.115-.108.54-.282.948-.522 1.224-.24.27-.564.405-.972.405-.186 0-.375-.024-.567-.072l.063-.801c.096.024.192.036.288.036a.743.743 0 00.621-.306c.156-.21.273-.522.351-.936.078-.414.129-.96.153-1.638l.099-2.655h4.437zm6.057 4.725h-3.348L167.621 38h-.927l2.853-6.3h.891L173.3 38h-.945l-.693-1.575zm-.315-.72l-1.359-3.087-1.359 3.087h2.718zM136.981 45.7h4.752v.765h-3.861v1.8h1.962c.75 0 1.32.156 1.71.468.39.312.585.762.585 1.35 0 .618-.213 1.092-.639 1.422-.42.33-1.023.495-1.809.495h-2.7v-6.3zm2.664 5.589c.516 0 .909-.099 1.179-.297.27-.198.405-.489.405-.873 0-.762-.528-1.143-1.584-1.143h-1.773v2.313h1.773zm7.988-.864h-3.348L143.592 52h-.927l2.853-6.3h.891l2.862 6.3h-.945l-.693-1.575zm-.315-.72l-1.359-3.087-1.359 3.087h2.718zm5.769 2.367c-.63 0-1.2-.138-1.71-.414a3.13 3.13 0 01-1.188-1.152 3.217 3.217 0 01-.432-1.656c0-.612.144-1.161.432-1.647a3.03 3.03 0 011.197-1.152 3.474 3.474 0 011.71-.423c.492 0 .942.084 1.35.252a2.72 2.72 0 011.044.729l-.585.567c-.474-.498-1.065-.747-1.773-.747-.468 0-.891.105-1.269.315-.378.21-.675.501-.891.873-.21.366-.315.777-.315 1.233 0 .456.105.87.315 1.242.216.366.513.654.891.864.378.21.801.315 1.269.315.702 0 1.293-.252 1.773-.756l.585.567c-.288.324-.639.57-1.053.738a3.513 3.513 0 01-1.35.252zm5.839-2.844h-1.314V52h-.882v-6.3h.882v2.736h1.332l1.98-2.736h.963l-2.25 3.051L161.995 52h-1.026l-2.043-2.772zm8.564 1.989V52h-4.572v-6.3h4.446v.783h-3.546v1.935h3.159v.765h-3.159v2.034h3.672zm5.742-4.734h-2.16V52h-.882v-5.517h-2.151V45.7h5.193v.783zm1.094-.783h4.752v.765h-3.861v1.8h1.962c.75 0 1.32.156 1.71.468.39.312.585.762.585 1.35 0 .618-.213 1.092-.639 1.422-.42.33-1.023.495-1.809.495h-2.7v-6.3zm2.664 5.589c.516 0 .909-.099 1.179-.297.27-.198.405-.489.405-.873 0-.762-.528-1.143-1.584-1.143h-1.773v2.313h1.773zm6.754.783a3.553 3.553 0 01-1.719-.414 3.159 3.159 0 01-1.206-1.161 3.2 3.2 0 01-.432-1.647 3.2 3.2 0 01.432-1.647 3.093 3.093 0 011.206-1.152 3.492 3.492 0 011.719-.423c.63 0 1.2.141 1.71.423.51.276.909.66 1.197 1.152.288.486.432 1.035.432 1.647 0 .612-.144 1.164-.432 1.656-.288.486-.687.87-1.197 1.152-.51.276-1.08.414-1.71.414zm0-.801a2.45 2.45 0 001.242-.315c.372-.21.663-.498.873-.864.216-.372.324-.786.324-1.242a2.38 2.38 0 00-.324-1.233 2.26 2.26 0 00-.873-.873 2.45 2.45 0 00-1.242-.315 2.55 2.55 0 00-1.26.315c-.372.21-.666.501-.882.873-.21.366-.315.777-.315 1.233 0 .456.105.87.315 1.242.216.366.51.654.882.864.378.21.798.315 1.26.315zm9.766-5.571V52h-.882v-5.517h-2.79l-.063 1.845c-.03.87-.102 1.575-.216 2.115-.108.54-.282.948-.522 1.224-.24.27-.564.405-.972.405-.186 0-.375-.024-.567-.072l.063-.801c.096.024.192.036.288.036a.743.743 0 00.621-.306c.156-.21.273-.522.351-.936.078-.414.129-.96.153-1.638l.099-2.655h4.437zm6.057 4.725h-3.348L195.526 52h-.927l2.853-6.3h.891l2.862 6.3h-.945l-.693-1.575zm-.315-.72l-1.359-3.087-1.359 3.087h2.718z" fill="#78909C"/></svg>