<svg width="202" height="80" viewBox="0 0 202 80" fill="none" xmlns="http://www.w3.org/2000/svg">
<path d="M114.627 36.9178H126.227V31.2035H108.22H107.528H100.221L96.1002 43.1861L91.8062 31.0996H77.0889V51.8788L72.5871 45.4372C73.3143 44.987 74.5956 43.9481 75.115 43.3939C76.1885 42.1818 76.7426 40.5195 76.7426 38.8571C76.7426 33.316 72.8295 31.0996 68.1546 31.2035H56.4153V40.3117C55.6881 34.3203 50.7708 31.2381 45.4379 31.2381H43.7757L65.1418 5.85281L64.5878 5.4026L45.6803 27.8788C45.334 27.4286 44.5722 26.4935 43.7757 25.7316C42.7022 24.7273 41.5595 25.0736 40.7284 24.9004C39.8973 24.7273 39.8973 22.8571 39.8973 22.8571C39.8973 22.8571 40.486 22.4416 41.2132 22.4416C41.9404 22.4416 41.7672 22.026 41.8711 21.7836C41.975 21.5411 41.698 21.0216 41.698 21.0216C41.698 21.0216 41.8711 20.5368 41.7672 20.2944C41.6633 20.0519 41.6633 19.3247 41.8365 19.0823C42.0096 18.8398 41.9058 18.5281 41.9058 18.5281C41.9058 18.5281 41.2478 18.2511 40.5898 17.1429C39.7587 15.6883 38.2697 15.2727 36.8153 15.5844C35.7071 15.8268 35.1531 16.4848 34.5298 17.1429C33.9411 17.8009 34.045 19.0476 34.045 19.0476C34.045 19.0476 35.257 21.7489 34.1488 20.6061C33.0753 19.4632 31.4478 19.1515 31.1015 19.1169C30.7552 19.0476 29.8895 18.2165 28.7813 17.1429C27.6386 16.0693 26.4958 15.6883 25.734 15.342C24.9721 14.9957 24.0718 13.7143 24.0718 13.5411C24.0718 13.368 23.8986 11.4286 23.5177 10.7359C23.1714 10.0433 22.9983 8.34632 22.929 7.27273C23.6909 7.96537 24.6951 8.41558 25.8032 8.41558C28.1234 8.41558 29.9934 6.54545 29.9934 4.22511C29.9241 1.87013 28.0541 0 25.734 0C24.2796 0 22.9637 0.761905 22.2365 1.90476C21.8555 1.8355 21.3361 2.56277 21.0244 2.94372C20.6781 3.35931 20.7128 4.50216 20.9552 5.33333C21.1976 6.1645 21.0591 8.13853 21.0244 9.52381C20.9552 10.9091 20.9206 11.013 20.4704 11.9827C20.0548 12.9524 20.4011 14.2684 20.4011 14.2684C20.4011 14.2684 21.0591 15.0996 21.6478 15.8961C22.2365 16.658 23.7948 19.0823 24.5912 20.0173C25.3531 20.987 27.7771 22.5455 28.2965 22.9957C28.8506 23.4805 28.3658 23.7229 28.7121 24.3117C29.0584 24.9004 30.0972 25.8701 30.5821 27.013C31.0669 28.1558 30.9976 28.7446 31.3093 29.5758C31.6209 30.4069 31.3093 31.4805 31.4824 32.7619C31.6556 34.0087 31.4824 35.0823 31.4824 35.6364C31.4824 36.1905 31.7941 37.6797 31.7941 37.6797C31.7941 37.6797 31.6209 38.1645 31.24 38.3377C30.8937 38.5108 29.7856 39.2381 28.9199 39.8961C28.0195 40.5541 27.7078 40.9004 27.0153 42.5974C26.2881 44.2944 25.6994 48.3463 25.3877 49.3507C25.076 50.3896 24.8336 50.8398 24.4181 51.1515C24.0025 51.4632 23.2061 50.7359 23.2061 50.7359L22.8944 51.3939C22.8944 51.3939 23.2407 51.6364 23.5524 51.8788C23.7948 52.052 24.0718 52.9524 24.2103 53.368L23.6216 54.0606L23.1714 54.4069C23.1714 54.4069 22.375 54.303 21.2668 53.8182C20.1241 53.3333 19.2237 52.8139 18.2195 52.329C17.2152 51.8442 16.8343 50.8745 16.5573 50.5281C16.2456 50.1818 16.3841 49.1429 16.2456 48.7965C16.1417 48.4502 15.5184 47.2381 14.999 46.7533C14.4449 46.2684 13.3714 46.7533 12.4711 47.0996C11.5707 47.4459 11.2244 48.1732 10.4972 48.7273C9.77 49.2814 9.04279 49.7316 8.03855 50.1126C7.03431 50.4589 5.75303 51.9827 5.16434 52.5022C4.57565 53.0563 4.81805 53.645 4.57565 54.4069C4.33324 55.1688 4.47176 55.4113 4.67953 55.7922C4.92194 56.1385 5.57989 56.0346 6.23784 55.8615C6.89579 55.6883 7.8654 55.2727 8.52336 54.8918C9.18131 54.5455 9.90852 54.3377 10.7396 54.303C11.5707 54.2338 11.8824 54.3723 12.2287 54.5455C12.575 54.7186 13.4407 54.7186 13.8562 54.6147C14.2718 54.5108 14.5834 55.3766 15.1029 55.5152C15.6569 55.6191 16.8343 55.8615 16.8343 55.8615L19.4661 58.0087C19.4661 58.0087 18.1502 57.9394 17.5615 57.9394C16.9728 57.9394 15.1721 58.5974 14.0986 58.8398C13.0251 59.0823 10.8089 59.2554 9.83926 59.3939C8.86965 59.4978 7.93466 59.0823 7.31134 58.632C6.72265 58.1472 6.5495 57.8701 5.92618 57.4199C5.33748 57.0043 4.54102 57.0043 3.88306 56.8658C3.22511 56.7619 3.22511 57.4545 3.05197 58.2511C2.87882 59.013 1.25126 61.4719 0.731822 62.8571C0.177757 64.2424 0.0738704 66.1472 0.00461231 67.6364C-0.0646458 69.1255 0.662564 69.2641 1.07811 69.1255C1.49366 69.0217 2.15161 68.6407 2.39402 68.1558C2.63642 67.671 3.53677 66.4935 4.02158 65.5931C4.50639 64.6926 4.78342 64.8658 5.09508 64.6926C5.40674 64.5195 5.51063 64.2078 5.51063 64.2078L7.17282 64.0693L7.48448 63.0996H10.4972C10.4972 63.0996 10.9128 62.9264 11.2244 62.7879C11.5361 62.684 12.852 62.5455 13.5099 62.6147C13.9601 62.6494 15.3799 62.8225 16.1764 62.9264L2.22087 79.5498L2.77494 80L35.3609 41.2121V52.6061H45.0224C49.3856 52.6061 55.5842 50.2511 56.4499 43.4632V52.6407H63.6528V46.5108H65.1072L69.1242 52.6407H77.0889H84.2917V32.4156L92.4295 52.6753H99.5977L107.528 32.9004V52.6407H126.193V46.8225H114.592V44.4329H126.262V39.2035H114.592V36.9178H114.627ZM45.1262 46.4069H42.633V37.4026H45.1262C46.1305 37.4026 49.2817 38.303 49.2817 41.697C49.2817 45.0909 46.1305 46.4069 45.1262 46.4069ZM67.3581 41.316H63.6874V37.1255H67.3581C68.4316 37.1255 69.609 37.9913 69.609 39.3074C69.609 40.3117 68.4316 41.316 67.3581 41.316Z" fill="#263238"/>
<path d="M144.874 31.7V38H136.981V31.7H137.872V37.217H140.491V31.7H141.373V37.217H143.992V31.7H144.874Z" fill="#78909C"/>
<path d="M149.03 35.228H147.716V38H146.834V31.7H147.716V34.436H149.048L151.028 31.7H151.991L149.741 34.751L152.099 38H151.073L149.03 35.228Z" fill="#78909C"/>
<path d="M155.838 38.072C155.202 38.072 154.629 37.934 154.119 37.658C153.609 37.376 153.207 36.989 152.913 36.497C152.625 36.005 152.481 35.456 152.481 34.85C152.481 34.244 152.625 33.695 152.913 33.203C153.207 32.711 153.609 32.327 154.119 32.051C154.629 31.769 155.202 31.628 155.838 31.628C156.468 31.628 157.038 31.769 157.548 32.051C158.058 32.327 158.457 32.711 158.745 33.203C159.033 33.689 159.177 34.238 159.177 34.85C159.177 35.462 159.033 36.014 158.745 36.506C158.457 36.992 158.058 37.376 157.548 37.658C157.038 37.934 156.468 38.072 155.838 38.072ZM155.838 37.271C156.3 37.271 156.714 37.166 157.08 36.956C157.452 36.746 157.743 36.458 157.953 36.092C158.169 35.72 158.277 35.306 158.277 34.85C158.277 34.394 158.169 33.983 157.953 33.617C157.743 33.245 157.452 32.954 157.08 32.744C156.714 32.534 156.3 32.429 155.838 32.429C155.376 32.429 154.956 32.534 154.578 32.744C154.206 32.954 153.912 33.245 153.696 33.617C153.486 33.983 153.381 34.394 153.381 34.85C153.381 35.306 153.486 35.72 153.696 36.092C153.912 36.458 154.206 36.746 154.578 36.956C154.956 37.166 155.376 37.271 155.838 37.271Z" fill="#78909C"/>
<path d="M165.605 31.7V38H164.723V32.483H161.933L161.87 34.328C161.84 35.198 161.768 35.903 161.654 36.443C161.546 36.983 161.372 37.391 161.132 37.667C160.892 37.937 160.568 38.072 160.16 38.072C159.974 38.072 159.785 38.048 159.593 38L159.656 37.199C159.752 37.223 159.848 37.235 159.944 37.235C160.202 37.235 160.409 37.133 160.565 36.929C160.721 36.719 160.838 36.407 160.916 35.993C160.994 35.579 161.045 35.033 161.069 34.355L161.168 31.7H165.605Z" fill="#78909C"/>
<path d="M171.662 36.425H168.314L167.621 38H166.694L169.547 31.7H170.438L173.3 38H172.355L171.662 36.425ZM171.347 35.705L169.988 32.618L168.629 35.705H171.347Z" fill="#78909C"/>
<path d="M136.981 45.7H141.733V46.465H137.872V48.265H139.834C140.584 48.265 141.154 48.421 141.544 48.733C141.934 49.045 142.129 49.495 142.129 50.083C142.129 50.701 141.916 51.175 141.49 51.505C141.07 51.835 140.467 52 139.681 52H136.981V45.7ZM139.645 51.289C140.161 51.289 140.554 51.19 140.824 50.992C141.094 50.794 141.229 50.503 141.229 50.119C141.229 49.357 140.701 48.976 139.645 48.976H137.872V51.289H139.645Z" fill="#78909C"/>
<path d="M147.633 50.425H144.285L143.592 52H142.665L145.518 45.7H146.409L149.271 52H148.326L147.633 50.425ZM147.318 49.705L145.959 46.618L144.6 49.705H147.318Z" fill="#78909C"/>
<path d="M153.087 52.072C152.457 52.072 151.887 51.934 151.377 51.658C150.873 51.376 150.477 50.992 150.189 50.506C149.901 50.014 149.757 49.462 149.757 48.85C149.757 48.238 149.901 47.689 150.189 47.203C150.477 46.711 150.876 46.327 151.386 46.051C151.896 45.769 152.466 45.628 153.096 45.628C153.588 45.628 154.038 45.712 154.446 45.88C154.854 46.042 155.202 46.285 155.49 46.609L154.905 47.176C154.431 46.678 153.84 46.429 153.132 46.429C152.664 46.429 152.241 46.534 151.863 46.744C151.485 46.954 151.188 47.245 150.972 47.617C150.762 47.983 150.657 48.394 150.657 48.85C150.657 49.306 150.762 49.72 150.972 50.092C151.188 50.458 151.485 50.746 151.863 50.956C152.241 51.166 152.664 51.271 153.132 51.271C153.834 51.271 154.425 51.019 154.905 50.515L155.49 51.082C155.202 51.406 154.851 51.652 154.437 51.82C154.029 51.988 153.579 52.072 153.087 52.072Z" fill="#78909C"/>
<path d="M158.926 49.228H157.612V52H156.73V45.7H157.612V48.436H158.944L160.924 45.7H161.887L159.637 48.751L161.995 52H160.969L158.926 49.228Z" fill="#78909C"/>
<path d="M167.49 51.217V52H162.918V45.7H167.364V46.483H163.818V48.418H166.977V49.183H163.818V51.217H167.49Z" fill="#78909C"/>
<path d="M173.232 46.483H171.072V52H170.19V46.483H168.039V45.7H173.232V46.483Z" fill="#78909C"/>
<path d="M174.326 45.7H179.078V46.465H175.217V48.265H177.179C177.929 48.265 178.499 48.421 178.889 48.733C179.279 49.045 179.474 49.495 179.474 50.083C179.474 50.701 179.261 51.175 178.835 51.505C178.415 51.835 177.812 52 177.026 52H174.326V45.7ZM176.99 51.289C177.506 51.289 177.899 51.19 178.169 50.992C178.439 50.794 178.574 50.503 178.574 50.119C178.574 49.357 178.046 48.976 176.99 48.976H175.217V51.289H176.99Z" fill="#78909C"/>
<path d="M183.744 52.072C183.108 52.072 182.535 51.934 182.025 51.658C181.515 51.376 181.113 50.989 180.819 50.497C180.531 50.005 180.387 49.456 180.387 48.85C180.387 48.244 180.531 47.695 180.819 47.203C181.113 46.711 181.515 46.327 182.025 46.051C182.535 45.769 183.108 45.628 183.744 45.628C184.374 45.628 184.944 45.769 185.454 46.051C185.964 46.327 186.363 46.711 186.651 47.203C186.939 47.689 187.083 48.238 187.083 48.85C187.083 49.462 186.939 50.014 186.651 50.506C186.363 50.992 185.964 51.376 185.454 51.658C184.944 51.934 184.374 52.072 183.744 52.072ZM183.744 51.271C184.206 51.271 184.62 51.166 184.986 50.956C185.358 50.746 185.649 50.458 185.859 50.092C186.075 49.72 186.183 49.306 186.183 48.85C186.183 48.394 186.075 47.983 185.859 47.617C185.649 47.245 185.358 46.954 184.986 46.744C184.62 46.534 184.206 46.429 183.744 46.429C183.282 46.429 182.862 46.534 182.484 46.744C182.112 46.954 181.818 47.245 181.602 47.617C181.392 47.983 181.287 48.394 181.287 48.85C181.287 49.306 181.392 49.72 181.602 50.092C181.818 50.458 182.112 50.746 182.484 50.956C182.862 51.166 183.282 51.271 183.744 51.271Z" fill="#78909C"/>
<path d="M193.51 45.7V52H192.628V46.483H189.838L189.775 48.328C189.745 49.198 189.673 49.903 189.559 50.443C189.451 50.983 189.277 51.391 189.037 51.667C188.797 51.937 188.473 52.072 188.065 52.072C187.879 52.072 187.69 52.048 187.498 52L187.561 51.199C187.657 51.223 187.753 51.235 187.849 51.235C188.107 51.235 188.314 51.133 188.47 50.929C188.626 50.719 188.743 50.407 188.821 49.993C188.899 49.579 188.95 49.033 188.974 48.355L189.073 45.7H193.51Z" fill="#78909C"/>
<path d="M199.567 50.425H196.219L195.526 52H194.599L197.452 45.7H198.343L201.205 52H200.26L199.567 50.425ZM199.252 49.705L197.893 46.618L196.534 49.705H199.252Z" fill="#78909C"/>
</svg>
